<svg xmlns="http://www.w3.org/2000/svg" viewBox="20 20 900 360" width="900" height="360" font-family="Helvetica, Arial, sans-serif"><defs><linearGradient id="pulseSpectrum" x1="0" y1="0" x2="1" y2="0"><stop offset="0" stop-color="#7c3aed"/><stop offset="0.22" stop-color="#2563eb"/><stop offset="0.45" stop-color="#10b981"/><stop offset="0.65" stop-color="#eab308"/><stop offset="0.82" stop-color="#f97316"/><stop offset="1" stop-color="#ef4444"/></linearGradient></defs><rect x="20" y="20" width="900" height="360" fill="#ffffff"/><polygon points="152.00,297.00 251.00,297.00 251.00,297.25 152.00,297.25" fill="#8b1a1a" opacity="0.28"/><polygon points="251.00,297.00 320.00,297.00 320.00,297.25 251.00,297.25" fill="#8b1a1a" opacity="0.11200000000000002"/><polygon points="320.00,297.00 370.00,299.50 370.00,299.54 320.00,297.25" fill="#8b1a1a" opacity="0.11200000000000002"/><polygon points="251.00,297.00 320.00,308.76 320.00,309.01 251.00,297.25" fill="#8b1a1a" opacity="0.11200000000000002"/><polygon points="320.00,308.76 440.00,311.69 440.00,311.44 320.00,309.01" fill="#8b1a1a" opacity="0.11200000000000002"/><polygon points="440.00,311.69 522.34,297.66 522.64,297.36 440.00,311.44" fill="#8b1a1a" opacity="0.11200000000000002"/><polygon points="522.34,297.66 538.30,204.00 538.55,204.00 522.64,297.36" fill="#8b1a1a" opacity="0.11200000000000002"/><polygon points="538.30,204.00 526.82,164.00 526.82,164.00 538.55,204.00" fill="#8b1a1a" opacity="0.11200000000000002"/><polygon points="251.00,297.00 320.00,300.87 320.00,301.12 251.00,297.25" fill="#8b1a1a" opacity="0.11200000000000002"/><polygon points="320.00,300.87 370.00,302.95 370.00,302.99 320.00,301.12" fill="#8b1a1a" opacity="0.11200000000000002"/><polygon points="251.00,297.00 320.00,293.13 320.00,293.38 251.00,297.25" fill="#8b1a1a" opacity="0.11200000000000002"/><polygon points="320.00,293.13 386.25,297.00 386.73,297.00 320.00,293.38" fill="#8b1a1a" opacity="0.11200000000000002"/><polygon points="251.00,297.00 320.00,285.24 320.00,285.49 251.00,297.25" fill="#8b1a1a" opacity="0.11200000000000002"/><polygon points="320.00,285.24 440.00,294.31 440.00,294.06 320.00,285.49" fill="#8b1a1a" opacity="0.11200000000000002"/><polygon points="440.00,294.31 513.21,306.79 513.43,306.57 440.00,294.06" fill="#8b1a1a" opacity="0.11200000000000002"/><polygon points="513.21,306.79 495.70,204.00 495.95,204.00 513.43,306.57" fill="#8b1a1a" opacity="0.11200000000000002"/><polygon points="495.70,204.00 513.18,164.00 513.18,164.00 495.95,204.00" fill="#8b1a1a" opacity="0.11200000000000002"/><polygon points="152.00,297.25 251.00,297.25 251.00,297.50 152.00,297.50" fill="#8b1a1a" opacity="0.28"/><polygon points="251.00,297.25 320.00,297.25 320.00,297.50 251.00,297.50" fill="#8b1a1a" opacity="0.11200000000000002"/><polygon points="320.00,297.25 370.00,299.54 370.00,299.58 320.00,297.50" fill="#8b1a1a" opacity="0.11200000000000002"/><polygon points="251.00,297.25 320.00,309.01 320.00,309.26 251.00,297.50" fill="#8b1a1a" opacity="0.11200000000000002"/><polygon points="320.00,309.01 440.00,311.44 440.00,311.19 320.00,309.26" fill="#8b1a1a" opacity="0.11200000000000002"/><polygon points="440.00,311.44 522.64,297.36 522.94,297.06 440.00,311.19" fill="#8b1a1a" opacity="0.11200000000000002"/><polygon points="522.64,297.36 538.55,204.00 538.80,204.00 522.94,297.06" fill="#8b1a1a" opacity="0.11200000000000002"/><polygon points="538.55,204.00 526.82,164.00 526.82,164.00 538.80,204.00" fill="#8b1a1a" opacity="0.11200000000000002"/><polygon points="251.00,297.25 320.00,301.12 320.00,301.37 251.00,297.50" fill="#8b1a1a" opacity="0.11200000000000002"/><polygon points="320.00,301.12 370.00,302.99 370.01,303.03 320.00,301.37" fill="#8b1a1a" opacity="0.11200000000000002"/><polygon points="251.00,297.25 320.00,293.38 320.00,293.63 251.00,297.50" fill="#8b1a1a" opacity="0.11200000000000002"/><polygon points="320.00,293.38 386.73,297.00 387.29,297.00 320.00,293.63" fill="#8b1a1a" opacity="0.11200000000000002"/><polygon points="251.00,297.25 320.00,285.49 320.00,285.74 251.00,297.50" fill="#8b1a1a" opacity="0.11200000000000002"/><polygon points="320.00,285.49 440.00,294.06 440.00,293.81 320.00,285.74" fill="#8b1a1a" opacity="0.11200000000000002"/><polygon points="440.00,294.06 513.43,306.57 513.64,306.36 440.00,293.81" fill="#8b1a1a" opacity="0.11200000000000002"/><polygon points="513.43,306.57 495.95,204.00 496.20,204.00 513.64,306.36" fill="#8b1a1a" opacity="0.11200000000000002"/><polygon points="495.95,204.00 513.18,164.00 513.18,164.00 496.20,204.00" fill="#8b1a1a" opacity="0.11200000000000002"/><polygon points="152.00,297.50 251.00,297.50 251.00,297.75 152.00,297.75" fill="#8b1a1a" opacity="0.28"/><polygon points="251.00,297.50 320.00,297.50 320.00,297.75 251.00,297.75" fill="#8b1a1a" opacity="0.11200000000000002"/><polygon points="320.00,297.50 370.00,299.58 370.00,299.63 320.00,297.75" fill="#8b1a1a" opacity="0.11200000000000002"/><polygon points="251.00,297.50 320.00,309.26 320.00,309.51 251.00,297.75" fill="#8b1a1a" opacity="0.11200000000000002"/><polygon points="320.00,309.26 440.00,311.19 440.00,310.94 320.00,309.51" fill="#8b1a1a" opacity="0.11200000000000002"/><polygon points="440.00,311.19 522.94,297.06 523.25,296.75 440.00,310.94" fill="#8b1a1a" opacity="0.11200000000000002"/><polygon points="522.94,297.06 538.80,204.00 539.05,204.00 523.25,296.75" fill="#8b1a1a" opacity="0.11200000000000002"/><polygon points="538.80,204.00 526.82,164.00 526.82,164.00 539.05,204.00" fill="#8b1a1a" opacity="0.11200000000000002"/><polygon points="251.00,297.50 320.00,301.37 320.00,301.62 251.00,297.75" fill="#8b1a1a" opacity="0.11200000000000002"/><polygon points="320.00,301.37 440.00,305.36 440.00,305.11 320.00,301.62" fill="#8b1a1a" opacity="0.11200000000000002"/><polygon points="440.00,305.36 519.07,300.93 519.34,300.66 440.00,305.11" fill="#8b1a1a" opacity="0.11200000000000002"/><polygon points="519.07,300.93 524.51,204.00 524.76,204.00 519.34,300.66" fill="#8b1a1a" opacity="0.11200000000000002"/><polygon points="524.51,204.00 522.24,164.00 522.24,164.00 524.76,204.00" fill="#8b1a1a" opacity="0.11200000000000002"/><polygon points="251.00,297.50 320.00,293.63 320.00,293.88 251.00,297.75" fill="#8b1a1a" opacity="0.11200000000000002"/><polygon points="320.00,293.63 387.29,297.00 387.96,297.00 320.00,293.88" fill="#8b1a1a" opacity="0.11200000000000002"/><polygon points="251.00,297.50 320.00,285.74 320.00,285.99 251.00,297.75" fill="#8b1a1a" opacity="0.11200000000000002"/><polygon points="320.00,285.74 440.00,293.81 440.00,293.56 320.00,285.99" fill="#8b1a1a" opacity="0.11200000000000002"/><polygon points="440.00,293.81 513.64,306.36 513.86,306.14 440.00,293.56" fill="#8b1a1a" opacity="0.11200000000000002"/><polygon points="513.64,306.36 496.20,204.00 496.45,204.00 513.86,306.14" fill="#8b1a1a" opacity="0.11200000000000002"/><polygon points="496.20,204.00 513.18,164.00 513.18,164.00 496.45,204.00" fill="#8b1a1a" opacity="0.11200000000000002"/><polygon points="152.00,297.75 251.00,297.75 251.00,298.00 152.00,298.00" fill="#8b1a1a" opacity="0.28"/><polygon points="251.00,297.75 320.00,297.75 320.00,298.00 251.00,298.00" fill="#8b1a1a" opacity="0.11200000000000002"/><polygon points="320.00,297.75 370.00,299.63 370.00,299.67 320.00,298.00" fill="#8b1a1a" opacity="0.11200000000000002"/><polygon points="251.00,297.75 320.00,309.51 320.00,309.76 251.00,298.00" fill="#8b1a1a" opacity="0.11200000000000002"/><polygon points="320.00,309.51 440.00,310.94 440.00,310.69 320.00,309.76" fill="#8b1a1a" opacity="0.11200000000000002"/><polygon points="440.00,310.94 523.25,296.75 523.55,296.45 440.00,310.69" fill="#8b1a1a" opacity="0.11200000000000002"/><polygon points="523.25,296.75 539.05,204.00 539.30,204.00 523.55,296.45" fill="#8b1a1a" opacity="0.11200000000000002"/><polygon points="539.05,204.00 526.82,164.00 526.82,164.00 539.30,204.00" fill="#8b1a1a" opacity="0.11200000000000002"/><polygon points="251.00,297.75 320.00,301.62 320.00,301.87 251.00,298.00" fill="#8b1a1a" opacity="0.11200000000000002"/><polygon points="320.00,301.62 440.00,305.11 440.00,304.86 320.00,301.87" fill="#8b1a1a" opacity="0.11200000000000002"/><polygon points="440.00,305.11 519.34,300.66 519.60,300.40 440.00,304.86" fill="#8b1a1a" opacity="0.11200000000000002"/><polygon points="519.34,300.66 524.76,204.00 525.01,204.00 519.60,300.40" fill="#8b1a1a" opacity="0.11200000000000002"/><polygon points="524.76,204.00 522.24,164.00 522.24,164.00 525.01,204.00" fill="#8b1a1a" opacity="0.11200000000000002"/><polygon points="251.00,297.75 320.00,293.88 320.00,294.13 251.00,298.00" fill="#8b1a1a" opacity="0.11200000000000002"/><polygon points="320.00,293.88 387.96,297.00 388.75,297.00 320.00,294.13" fill="#8b1a1a" opacity="0.11200000000000002"/><polygon points="251.00,297.75 320.00,285.99 320.00,286.24 251.00,298.00" fill="#8b1a1a" opacity="0.11200000000000002"/><polygon points="320.00,285.99 440.00,293.56 440.00,293.31 320.00,286.24" fill="#8b1a1a" opacity="0.11200000000000002"/><polygon points="440.00,293.56 513.86,306.14 514.07,305.93 440.00,293.31" fill="#8b1a1a" opacity="0.11200000000000002"/><polygon points="513.86,306.14 496.45,204.00 496.70,204.00 514.07,305.93" fill="#8b1a1a" opacity="0.11200000000000002"/><polygon points="496.45,204.00 513.18,164.00 513.18,164.00 496.70,204.00" fill="#8b1a1a" opacity="0.11200000000000002"/><polygon points="152.00,298.00 251.00,298.00 251.00,298.25 152.00,298.25" fill="#8b1a1a" opacity="0.28"/><polygon points="251.00,298.00 320.00,298.00 320.00,298.25 251.00,298.25" fill="#8b1a1a" opacity="0.11200000000000002"/><polygon points="320.00,298.00 370.00,299.67 370.00,299.71 320.00,298.25" fill="#8b1a1a" opacity="0.11200000000000002"/><polygon points="251.00,298.00 320.00,309.76 320.00,310.01 251.00,298.25" fill="#8b1a1a" opacity="0.11200000000000002"/><polygon points="320.00,309.76 440.00,310.69 440.00,310.44 320.00,310.01" fill="#8b1a1a" opacity="0.11200000000000002"/><polygon points="440.00,310.69 523.55,296.45 523.85,296.15 440.00,310.44" fill="#8b1a1a" opacity="0.11200000000000002"/><polygon points="523.55,296.45 539.30,204.00 539.55,204.00 523.85,296.15" fill="#8b1a1a" opacity="0.11200000000000002"/><polygon points="539.30,204.00 526.82,164.00 526.82,164.00 539.55,204.00" fill="#8b1a1a" opacity="0.11200000000000002"/><polygon points="251.00,298.00 320.00,301.87 320.00,302.12 251.00,298.25" fill="#8b1a1a" opacity="0.11200000000000002"/><polygon points="320.00,301.87 440.00,304.86 440.00,304.61 320.00,302.12" fill="#8b1a1a" opacity="0.11200000000000002"/><polygon points="440.00,304.86 519.60,300.40 519.87,300.13 440.00,304.61" fill="#8b1a1a" opacity="0.11200000000000002"/><polygon points="519.60,300.40 525.01,204.00 525.26,204.00 519.87,300.13" fill="#8b1a1a" opacity="0.11200000000000002"/><polygon points="525.01,204.00 522.24,164.00 522.24,164.00 525.26,204.00" fill="#8b1a1a" opacity="0.11200000000000002"/><polygon points="251.00,298.00 320.00,294.13 320.00,294.38 251.00,298.25" fill="#8b1a1a" opacity="0.11200000000000002"/><polygon points="320.00,294.13 388.75,297.00 389.72,297.00 320.00,294.38" fill="#8b1a1a" opacity="0.11200000000000002"/><polygon points="251.00,298.00 320.00,286.24 320.00,286.49 251.00,298.25" fill="#8b1a1a" opacity="0.11200000000000002"/><polygon points="320.00,286.24 440.00,293.31 440.00,293.06 320.00,286.49" fill="#8b1a1a" opacity="0.11200000000000002"/><polygon points="440.00,293.31 514.07,305.93 514.28,305.72 440.00,293.06" fill="#8b1a1a" opacity="0.11200000000000002"/><polygon points="514.07,305.93 496.70,204.00 496.95,204.00 514.28,305.72" fill="#8b1a1a" opacity="0.11200000000000002"/><polygon points="496.70,204.00 513.18,164.00 513.18,164.00 496.95,204.00" fill="#8b1a1a" opacity="0.11200000000000002"/><polygon points="152.00,298.25 251.00,298.25 251.00,298.50 152.00,298.50" fill="#8b1a1a" opacity="0.28"/><polygon points="251.00,298.25 320.00,298.25 320.00,298.50 251.00,298.50" fill="#8b1a1a" opacity="0.11200000000000002"/><polygon points="320.00,298.25 370.00,299.71 370.00,299.75 320.00,298.50" fill="#8b1a1a" opacity="0.11200000000000002"/><polygon points="251.00,298.25 320.00,310.01 320.00,310.26 251.00,298.50" fill="#8b1a1a" opacity="0.11200000000000002"/><polygon points="320.00,310.01 440.00,310.44 440.00,310.19 320.00,310.26" fill="#8b1a1a" opacity="0.11200000000000002"/><polygon points="440.00,310.44 523.85,296.15 524.15,295.85 440.00,310.19" fill="#8b1a1a" opacity="0.11200000000000002"/><polygon points="523.85,296.15 539.55,204.00 539.80,204.00 524.15,295.85" fill="#8b1a1a" opacity="0.11200000000000002"/><polygon points="539.55,204.00 526.82,164.00 526.82,164.00 539.80,204.00" fill="#8b1a1a" opacity="0.11200000000000002"/><polygon points="251.00,298.25 320.00,302.12 320.00,302.37 251.00,298.50" fill="#8b1a1a" opacity="0.11200000000000002"/><polygon points="320.00,302.12 440.00,304.61 440.00,304.36 320.00,302.37" fill="#8b1a1a" opacity="0.11200000000000002"/><polygon points="440.00,304.61 519.87,300.13 520.13,299.87 440.00,304.36" fill="#8b1a1a" opacity="0.11200000000000002"/><polygon points="519.87,300.13 525.26,204.00 525.51,204.00 520.13,299.87" fill="#8b1a1a" opacity="0.11200000000000002"/><polygon points="525.26,204.00 522.24,164.00 522.24,164.00 525.51,204.00" fill="#8b1a1a" opacity="0.11200000000000002"/><polygon points="251.00,298.25 320.00,294.38 320.00,294.63 251.00,298.50" fill="#8b1a1a" opacity="0.11200000000000002"/><polygon points="320.00,294.38 389.72,297.00 389.73,296.96 320.00,294.63" fill="#8b1a1a" opacity="0.11200000000000002"/><polygon points="251.00,298.25 320.00,286.49 320.00,286.74 251.00,298.50" fill="#8b1a1a" opacity="0.11200000000000002"/><polygon points="320.00,286.49 440.00,293.06 440.00,292.81 320.00,286.74" fill="#8b1a1a" opacity="0.11200000000000002"/><polygon points="440.00,293.06 514.28,305.72 514.50,305.50 440.00,292.81" fill="#8b1a1a" opacity="0.11200000000000002"/><polygon points="514.28,305.72 496.95,204.00 497.20,204.00 514.50,305.50" fill="#8b1a1a" opacity="0.11200000000000002"/><polygon points="496.95,204.00 513.18,164.00 513.18,164.00 497.20,204.00" fill="#8b1a1a" opacity="0.11200000000000002"/><polygon points="152.00,298.50 251.00,298.50 251.00,298.75 152.00,298.75" fill="#8b1a1a" opacity="0.28"/><polygon points="251.00,298.50 320.00,298.50 320.00,298.75 251.00,298.75" fill="#8b1a1a" opacity="0.11200000000000002"/><polygon points="320.00,298.50 370.00,299.75 370.00,299.79 320.00,298.75" fill="#8b1a1a" opacity="0.11200000000000002"/><polygon points="251.00,298.50 320.00,310.26 320.00,310.51 251.00,298.75" fill="#8b1a1a" opacity="0.11200000000000002"/><polygon points="320.00,310.26 440.00,310.19 440.00,309.94 320.00,310.51" fill="#8b1a1a" opacity="0.11200000000000002"/><polygon points="440.00,310.19 524.15,295.85 524.45,295.55 440.00,309.94" fill="#8b1a1a" opacity="0.11200000000000002"/><polygon points="524.15,295.85 539.80,204.00 540.05,204.00 524.45,295.55" fill="#8b1a1a" opacity="0.11200000000000002"/><polygon points="539.80,204.00 526.82,164.00 526.82,164.00 540.05,204.00" fill="#8b1a1a" opacity="0.11200000000000002"/><polygon points="251.00,298.50 320.00,302.37 320.00,302.62 251.00,298.75" fill="#8b1a1a" opacity="0.11200000000000002"/><polygon points="320.00,302.37 440.00,304.36 440.00,304.11 320.00,302.62" fill="#8b1a1a" opacity="0.11200000000000002"/><polygon points="440.00,304.36 520.13,299.87 520.40,299.60 440.00,304.11" fill="#8b1a1a" opacity="0.11200000000000002"/><polygon points="520.13,299.87 525.51,204.00 525.76,204.00 520.40,299.60" fill="#8b1a1a" opacity="0.11200000000000002"/><polygon points="525.51,204.00 522.24,164.00 522.24,164.00 525.76,204.00" fill="#8b1a1a" opacity="0.11200000000000002"/><polygon points="251.00,298.50 320.00,294.63 320.00,294.88 251.00,298.75" fill="#8b1a1a" opacity="0.11200000000000002"/><polygon points="320.00,294.63 440.00,298.64 440.00,298.39 320.00,294.88" fill="#8b1a1a" opacity="0.11200000000000002"/><polygon points="440.00,298.64 517.04,302.96 517.28,302.72 440.00,298.39" fill="#8b1a1a" opacity="0.11200000000000002"/><polygon points="517.04,302.96 511.49,204.00 511.74,204.00 517.28,302.72" fill="#8b1a1a" opacity="0.11200000000000002"/><polygon points="511.49,204.00 517.76,164.00 517.76,164.00 511.74,204.00" fill="#8b1a1a" opacity="0.11200000000000002"/><polygon points="251.00,298.50 320.00,286.74 320.00,286.99 251.00,298.75" fill="#8b1a1a" opacity="0.11200000000000002"/><polygon points="320.00,286.74 440.00,292.81 440.00,292.56 320.00,286.99" fill="#8b1a1a" opacity="0.11200000000000002"/><polygon points="440.00,292.81 514.50,305.50 514.71,305.29 440.00,292.56" fill="#8b1a1a" opacity="0.11200000000000002"/><polygon points="514.50,305.50 497.20,204.00 497.45,204.00 514.71,305.29" fill="#8b1a1a" opacity="0.11200000000000002"/><polygon points="497.20,204.00 513.18,164.00 513.18,164.00 497.45,204.00" fill="#8b1a1a" opacity="0.11200000000000002"/><polygon points="152.00,298.75 251.00,298.75 251.00,299.00 152.00,299.00" fill="#8b1a1a" opacity="0.28"/><polygon points="251.00,298.75 320.00,298.75 320.00,299.00 251.00,299.00" fill="#8b1a1a" opacity="0.11200000000000002"/><polygon points="320.00,298.75 370.00,299.79 370.00,299.83 320.00,299.00" fill="#8b1a1a" opacity="0.11200000000000002"/><polygon points="251.00,298.75 320.00,310.51 320.00,310.76 251.00,299.00" fill="#8b1a1a" opacity="0.11200000000000002"/><polygon points="320.00,310.51 440.00,309.94 440.00,309.69 320.00,310.76" fill="#8b1a1a" opacity="0.11200000000000002"/><polygon points="440.00,309.94 524.45,295.55 524.75,295.25 440.00,309.69" fill="#8b1a1a" opacity="0.11200000000000002"/><polygon points="524.45,295.55 540.05,204.00 540.30,204.00 524.75,295.25" fill="#8b1a1a" opacity="0.11200000000000002"/><polygon points="540.05,204.00 526.82,164.00 526.82,164.00 540.30,204.00" fill="#8b1a1a" opacity="0.11200000000000002"/><polygon points="251.00,298.75 320.00,302.62 320.00,302.87 251.00,299.00" fill="#8b1a1a" opacity="0.11200000000000002"/><polygon points="320.00,302.62 440.00,304.11 440.00,303.86 320.00,302.87" fill="#8b1a1a" opacity="0.11200000000000002"/><polygon points="440.00,304.11 520.40,299.60 520.66,299.34 440.00,303.86" fill="#8b1a1a" opacity="0.11200000000000002"/><polygon points="520.40,299.60 525.76,204.00 526.01,204.00 520.66,299.34" fill="#8b1a1a" opacity="0.11200000000000002"/><polygon points="525.76,204.00 522.24,164.00 522.24,164.00 526.01,204.00" fill="#8b1a1a" opacity="0.11200000000000002"/><polygon points="251.00,298.75 320.00,294.88 320.00,295.13 251.00,299.00" fill="#8b1a1a" opacity="0.11200000000000002"/><polygon points="320.00,294.88 440.00,298.39 440.00,298.14 320.00,295.13" fill="#8b1a1a" opacity="0.11200000000000002"/><polygon points="440.00,298.39 517.28,302.72 517.51,302.49 440.00,298.14" fill="#8b1a1a" opacity="0.11200000000000002"/><polygon points="517.28,302.72 511.74,204.00 511.99,204.00 517.51,302.49" fill="#8b1a1a" opacity="0.11200000000000002"/><polygon points="511.74,204.00 517.76,164.00 517.76,164.00 511.99,204.00" fill="#8b1a1a" opacity="0.11200000000000002"/><polygon points="251.00,298.75 320.00,286.99 320.00,287.24 251.00,299.00" fill="#8b1a1a" opacity="0.11200000000000002"/><polygon points="320.00,286.99 440.00,292.56 440.00,292.31 320.00,287.24" fill="#8b1a1a" opacity="0.11200000000000002"/><polygon points="440.00,292.56 514.71,305.29 514.92,305.08 440.00,292.31" fill="#8b1a1a" opacity="0.11200000000000002"/><polygon points="514.71,305.29 497.45,204.00 497.70,204.00 514.92,305.08" fill="#8b1a1a" opacity="0.11200000000000002"/><polygon points="497.45,204.00 513.18,164.00 513.18,164.00 497.70,204.00" fill="#8b1a1a" opacity="0.11200000000000002"/><polygon points="152.00,299.00 251.00,299.00 251.00,299.25 152.00,299.25" fill="#8b1a1a" opacity="0.28"/><polygon points="251.00,299.00 320.00,299.00 320.00,299.25 251.00,299.25" fill="#8b1a1a" opacity="0.11200000000000002"/><polygon points="320.00,299.00 370.00,299.83 370.00,299.88 320.00,299.25" fill="#8b1a1a" opacity="0.11200000000000002"/><polygon points="251.00,299.00 320.00,310.76 320.00,311.01 251.00,299.25" fill="#8b1a1a" opacity="0.11200000000000002"/><polygon points="320.00,310.76 440.00,309.69 440.00,309.44 320.00,311.01" fill="#8b1a1a" opacity="0.11200000000000002"/><polygon points="440.00,309.69 524.75,295.25 525.05,294.95 440.00,309.44" fill="#8b1a1a" opacity="0.11200000000000002"/><polygon points="524.75,295.25 540.30,204.00 540.55,204.00 525.05,294.95" fill="#8b1a1a" opacity="0.11200000000000002"/><polygon points="540.30,204.00 526.82,164.00 526.82,164.00 540.55,204.00" fill="#8b1a1a" opacity="0.11200000000000002"/><polygon points="251.00,299.00 320.00,302.87 320.00,303.12 251.00,299.25" fill="#8b1a1a" opacity="0.11200000000000002"/><polygon points="320.00,302.87 440.00,303.86 440.00,303.61 320.00,303.12" fill="#8b1a1a" opacity="0.11200000000000002"/><polygon points="440.00,303.86 520.66,299.34 520.93,299.07 440.00,303.61" fill="#8b1a1a" opacity="0.11200000000000002"/><polygon points="520.66,299.34 526.01,204.00 526.26,204.00 520.93,299.07" fill="#8b1a1a" opacity="0.11200000000000002"/><polygon points="526.01,204.00 522.24,164.00 522.24,164.00 526.26,204.00" fill="#8b1a1a" opacity="0.11200000000000002"/><polygon points="251.00,299.00 320.00,295.13 320.00,295.38 251.00,299.25" fill="#8b1a1a" opacity="0.11200000000000002"/><polygon points="320.00,295.13 440.00,298.14 440.00,297.89 320.00,295.38" fill="#8b1a1a" opacity="0.11200000000000002"/><polygon points="440.00,298.14 517.51,302.49 517.75,302.25 440.00,297.89" fill="#8b1a1a" opacity="0.11200000000000002"/><polygon points="517.51,302.49 511.99,204.00 512.24,204.00 517.75,302.25" fill="#8b1a1a" opacity="0.11200000000000002"/><polygon points="511.99,204.00 517.76,164.00 517.76,164.00 512.24,204.00" fill="#8b1a1a" opacity="0.11200000000000002"/><polygon points="251.00,299.00 320.00,287.24 320.00,287.49 251.00,299.25" fill="#8b1a1a" opacity="0.11200000000000002"/><polygon points="320.00,287.24 440.00,292.31 440.00,292.06 320.00,287.49" fill="#8b1a1a" opacity="0.11200000000000002"/><polygon points="440.00,292.31 514.92,305.08 515.14,304.86 440.00,292.06" fill="#8b1a1a" opacity="0.11200000000000002"/><polygon points="514.92,305.08 497.70,204.00 497.95,204.00 515.14,304.86" fill="#8b1a1a" opacity="0.11200000000000002"/><polygon points="497.70,204.00 513.18,164.00 513.18,164.00 497.95,204.00" fill="#8b1a1a" opacity="0.11200000000000002"/><polygon points="152.00,299.25 251.00,299.25 251.00,299.50 152.00,299.50" fill="#8b1a1a" opacity="0.28"/><polygon points="251.00,299.25 320.00,299.25 320.00,299.50 251.00,299.50" fill="#8b1a1a" opacity="0.11200000000000002"/><polygon points="320.00,299.25 370.00,299.88 370.00,299.92 320.00,299.50" fill="#8b1a1a" opacity="0.11200000000000002"/><polygon points="251.00,299.25 320.00,311.01 320.00,311.26 251.00,299.50" fill="#8b1a1a" opacity="0.11200000000000002"/><polygon points="320.00,311.01 440.00,309.44 440.00,309.19 320.00,311.26" fill="#8b1a1a" opacity="0.11200000000000002"/><polygon points="440.00,309.44 525.05,294.95 525.35,294.65 440.00,309.19" fill="#8b1a1a" opacity="0.11200000000000002"/><polygon points="525.05,294.95 540.55,204.00 540.80,204.00 525.35,294.65" fill="#8b1a1a" opacity="0.11200000000000002"/><polygon points="540.55,204.00 526.82,164.00 526.82,164.00 540.80,204.00" fill="#8b1a1a" opacity="0.11200000000000002"/><polygon points="251.00,299.25 320.00,303.12 320.00,303.37 251.00,299.50" fill="#8b1a1a" opacity="0.11200000000000002"/><polygon points="320.00,303.12 440.00,303.61 440.00,303.36 320.00,303.37" fill="#8b1a1a" opacity="0.11200000000000002"/><polygon points="440.00,303.61 520.93,299.07 521.19,298.81 440.00,303.36" fill="#8b1a1a" opacity="0.11200000000000002"/><polygon points="520.93,299.07 526.26,204.00 526.51,204.00 521.19,298.81" fill="#8b1a1a" opacity="0.11200000000000002"/><polygon points="526.26,204.00 522.24,164.00 522.24,164.00 526.51,204.00" fill="#8b1a1a" opacity="0.11200000000000002"/><polygon points="251.00,299.25 320.00,295.38 320.00,295.63 251.00,299.50" fill="#8b1a1a" opacity="0.11200000000000002"/><polygon points="320.00,295.38 440.00,297.89 440.00,297.64 320.00,295.63" fill="#8b1a1a" opacity="0.11200000000000002"/><polygon points="440.00,297.89 517.75,302.25 517.99,302.01 440.00,297.64" fill="#8b1a1a" opacity="0.11200000000000002"/><polygon points="517.75,302.25 512.24,204.00 512.49,204.00 517.99,302.01" fill="#8b1a1a" opacity="0.11200000000000002"/><polygon points="512.24,204.00 517.76,164.00 517.76,164.00 512.49,204.00" fill="#8b1a1a" opacity="0.11200000000000002"/><polygon points="251.00,299.25 320.00,287.49 320.00,287.74 251.00,299.50" fill="#8b1a1a" opacity="0.11200000000000002"/><polygon points="320.00,287.49 440.00,292.06 440.00,291.81 320.00,287.74" fill="#8b1a1a" opacity="0.11200000000000002"/><polygon points="440.00,292.06 515.14,304.86 515.35,304.65 440.00,291.81" fill="#8b1a1a" opacity="0.11200000000000002"/><polygon points="515.14,304.86 497.95,204.00 498.20,204.00 515.35,304.65" fill="#8b1a1a" opacity="0.11200000000000002"/><polygon points="497.95,204.00 513.18,164.00 513.18,164.00 498.20,204.00" fill="#8b1a1a" opacity="0.11200000000000002"/><polygon points="152.00,299.50 251.00,299.50 251.00,299.75 152.00,299.75" fill="#8b1a1a" opacity="0.28"/><polygon points="251.00,299.50 320.00,299.50 320.00,299.75 251.00,299.75" fill="#8b1a1a" opacity="0.11200000000000002"/><polygon points="320.00,299.50 370.00,299.92 370.00,299.96 320.00,299.75" fill="#8b1a1a" opacity="0.11200000000000002"/><polygon points="251.00,299.50 320.00,311.26 320.00,311.51 251.00,299.75" fill="#8b1a1a" opacity="0.11200000000000002"/><polygon points="320.00,311.26 440.00,309.19 440.00,308.94 320.00,311.51" fill="#8b1a1a" opacity="0.11200000000000002"/><polygon points="440.00,309.19 525.35,294.65 525.66,294.34 440.00,308.94" fill="#8b1a1a" opacity="0.11200000000000002"/><polygon points="525.35,294.65 540.80,204.00 541.05,204.00 525.66,294.34" fill="#8b1a1a" opacity="0.11200000000000002"/><polygon points="540.80,204.00 526.82,164.00 526.82,164.00 541.05,204.00" fill="#8b1a1a" opacity="0.11200000000000002"/><polygon points="251.00,299.50 320.00,303.37 320.00,303.62 251.00,299.75" fill="#8b1a1a" opacity="0.11200000000000002"/><polygon points="320.00,303.37 440.00,303.36 440.00,303.11 320.00,303.62" fill="#8b1a1a" opacity="0.11200000000000002"/><polygon points="440.00,303.36 521.19,298.81 521.46,298.54 440.00,303.11" fill="#8b1a1a" opacity="0.11200000000000002"/><polygon points="521.19,298.81 526.51,204.00 526.76,204.00 521.46,298.54" fill="#8b1a1a" opacity="0.11200000000000002"/><polygon points="526.51,204.00 522.24,164.00 522.24,164.00 526.76,204.00" fill="#8b1a1a" opacity="0.11200000000000002"/><polygon points="251.00,299.50 320.00,295.63 320.00,295.88 251.00,299.75" fill="#8b1a1a" opacity="0.11200000000000002"/><polygon points="320.00,295.63 440.00,297.64 440.00,297.39 320.00,295.88" fill="#8b1a1a" opacity="0.11200000000000002"/><polygon points="440.00,297.64 517.99,302.01 518.22,301.78 440.00,297.39" fill="#8b1a1a" opacity="0.11200000000000002"/><polygon points="517.99,302.01 512.49,204.00 512.74,204.00 518.22,301.78" fill="#8b1a1a" opacity="0.11200000000000002"/><polygon points="512.49,204.00 517.76,164.00 517.76,164.00 512.74,204.00" fill="#8b1a1a" opacity="0.11200000000000002"/><polygon points="251.00,299.50 320.00,287.74 320.00,287.99 251.00,299.75" fill="#8b1a1a" opacity="0.11200000000000002"/><polygon points="320.00,287.74 440.00,291.81 440.00,291.56 320.00,287.99" fill="#8b1a1a" opacity="0.11200000000000002"/><polygon points="440.00,291.81 515.35,304.65 515.56,304.44 440.00,291.56" fill="#8b1a1a" opacity="0.11200000000000002"/><polygon points="515.35,304.65 498.20,204.00 498.45,204.00 515.56,304.44" fill="#8b1a1a" opacity="0.11200000000000002"/><polygon points="498.20,204.00 513.18,164.00 513.18,164.00 498.45,204.00" fill="#8b1a1a" opacity="0.11200000000000002"/><polygon points="152.00,299.75 251.00,299.75 251.00,300.00 152.00,300.00" fill="#8b1a1a" opacity="0.28"/><polygon points="251.00,299.75 320.00,299.75 320.00,300.00 251.00,300.00" fill="#8b1a1a" opacity="0.11200000000000002"/><polygon points="320.00,299.75 370.00,299.96 370.00,300.00 320.00,300.00" fill="#8b1a1a" opacity="0.11200000000000002"/><polygon points="251.00,299.75 320.00,311.51 320.00,311.76 251.00,300.00" fill="#8b1a1a" opacity="0.11200000000000002"/><polygon points="320.00,311.51 440.00,308.94 440.00,308.69 320.00,311.76" fill="#8b1a1a" opacity="0.11200000000000002"/><polygon points="440.00,308.94 525.66,294.34 525.96,294.04 440.00,308.69" fill="#8b1a1a" opacity="0.11200000000000002"/><polygon points="525.66,294.34 541.05,204.00 541.30,204.00 525.96,294.04" fill="#8b1a1a" opacity="0.11200000000000002"/><polygon points="541.05,204.00 526.82,164.00 526.82,164.00 541.30,204.00" fill="#8b1a1a" opacity="0.11200000000000002"/><polygon points="251.00,299.75 320.00,303.62 320.00,303.87 251.00,300.00" fill="#8b1a1a" opacity="0.11200000000000002"/><polygon points="320.00,303.62 440.00,303.11 440.00,302.86 320.00,303.87" fill="#8b1a1a" opacity="0.11200000000000002"/><polygon points="440.00,303.11 521.46,298.54 521.72,298.28 440.00,302.86" fill="#8b1a1a" opacity="0.11200000000000002"/><polygon points="521.46,298.54 526.76,204.00 527.01,204.00 521.72,298.28" fill="#8b1a1a" opacity="0.11200000000000002"/><polygon points="526.76,204.00 522.24,164.00 522.24,164.00 527.01,204.00" fill="#8b1a1a" opacity="0.11200000000000002"/><polygon points="251.00,299.75 320.00,295.88 320.00,296.13 251.00,300.00" fill="#8b1a1a" opacity="0.11200000000000002"/><polygon points="320.00,295.88 440.00,297.39 440.00,297.14 320.00,296.13" fill="#8b1a1a" opacity="0.11200000000000002"/><polygon points="440.00,297.39 518.22,301.78 518.46,301.54 440.00,297.14" fill="#8b1a1a" opacity="0.11200000000000002"/><polygon points="518.22,301.78 512.74,204.00 512.99,204.00 518.46,301.54" fill="#8b1a1a" opacity="0.11200000000000002"/><polygon points="512.74,204.00 517.76,164.00 517.76,164.00 512.99,204.00" fill="#8b1a1a" opacity="0.11200000000000002"/><polygon points="251.00,299.75 320.00,287.99 320.00,288.24 251.00,300.00" fill="#8b1a1a" opacity="0.11200000000000002"/><polygon points="320.00,287.99 440.00,291.56 440.00,291.31 320.00,288.24" fill="#8b1a1a" opacity="0.11200000000000002"/><polygon points="440.00,291.56 515.56,304.44 515.78,304.22 440.00,291.31" fill="#8b1a1a" opacity="0.11200000000000002"/><polygon points="515.56,304.44 498.45,204.00 498.70,204.00 515.78,304.22" fill="#8b1a1a" opacity="0.11200000000000002"/><polygon points="498.45,204.00 513.18,164.00 513.18,164.00 498.70,204.00" fill="#8b1a1a" opacity="0.11200000000000002"/><polygon points="152.00,300.00 251.00,300.00 251.00,300.25 152.00,300.25" fill="#8b1a1a" opacity="0.28"/><polygon points="251.00,300.00 320.00,300.00 320.00,300.25 251.00,300.25" fill="#8b1a1a" opacity="0.11200000000000002"/><polygon points="320.00,300.00 370.00,300.00 370.00,300.04 320.00,300.25" fill="#8b1a1a" opacity="0.11200000000000002"/><polygon points="251.00,300.00 320.00,311.76 320.00,312.01 251.00,300.25" fill="#8b1a1a" opacity="0.11200000000000002"/><polygon points="320.00,311.76 440.00,308.69 440.00,308.44 320.00,312.01" fill="#8b1a1a" opacity="0.11200000000000002"/><polygon points="440.00,308.69 525.96,294.04 526.26,293.74 440.00,308.44" fill="#8b1a1a" opacity="0.11200000000000002"/><polygon points="525.96,294.04 541.30,204.00 541.55,204.00 526.26,293.74" fill="#8b1a1a" opacity="0.11200000000000002"/><polygon points="541.30,204.00 526.82,164.00 526.82,164.00 541.55,204.00" fill="#8b1a1a" opacity="0.11200000000000002"/><polygon points="251.00,300.00 320.00,303.87 320.00,304.12 251.00,300.25" fill="#8b1a1a" opacity="0.11200000000000002"/><polygon points="320.00,303.87 440.00,302.86 440.00,302.61 320.00,304.12" fill="#8b1a1a" opacity="0.11200000000000002"/><polygon points="440.00,302.86 521.72,298.28 521.99,298.01 440.00,302.61" fill="#8b1a1a" opacity="0.11200000000000002"/><polygon points="521.72,298.28 527.01,204.00 527.26,204.00 521.99,298.01" fill="#8b1a1a" opacity="0.11200000000000002"/><polygon points="527.01,204.00 522.24,164.00 522.24,164.00 527.26,204.00" fill="#8b1a1a" opacity="0.11200000000000002"/><polygon points="251.00,300.00 320.00,296.13 320.00,296.38 251.00,300.25" fill="#8b1a1a" opacity="0.11200000000000002"/><polygon points="320.00,296.13 440.00,297.14 440.00,296.89 320.00,296.38" fill="#8b1a1a" opacity="0.11200000000000002"/><polygon points="440.00,297.14 518.46,301.54 518.70,301.30 440.00,296.89" fill="#8b1a1a" opacity="0.11200000000000002"/><polygon points="518.46,301.54 512.99,204.00 513.24,204.00 518.70,301.30" fill="#8b1a1a" opacity="0.11200000000000002"/><polygon points="512.99,204.00 517.76,164.00 517.76,164.00 513.24,204.00" fill="#8b1a1a" opacity="0.11200000000000002"/><polygon points="251.00,300.00 320.00,288.24 320.00,288.49 251.00,300.25" fill="#8b1a1a" opacity="0.11200000000000002"/><polygon points="320.00,288.24 440.00,291.31 440.00,291.06 320.00,288.49" fill="#8b1a1a" opacity="0.11200000000000002"/><polygon points="440.00,291.31 515.78,304.22 515.99,304.01 440.00,291.06" fill="#8b1a1a" opacity="0.11200000000000002"/><polygon points="515.78,304.22 498.70,204.00 498.95,204.00 515.99,304.01" fill="#8b1a1a" opacity="0.11200000000000002"/><polygon points="498.70,204.00 513.18,164.00 513.18,164.00 498.95,204.00" fill="#8b1a1a" opacity="0.11200000000000002"/><polygon points="152.00,300.25 251.00,300.25 251.00,300.50 152.00,300.50" fill="#8b1a1a" opacity="0.28"/><polygon points="251.00,300.25 320.00,300.25 320.00,300.50 251.00,300.50" fill="#8b1a1a" opacity="0.11200000000000002"/><polygon points="320.00,300.25 370.00,300.04 370.00,300.08 320.00,300.50" fill="#8b1a1a" opacity="0.11200000000000002"/><polygon points="251.00,300.25 320.00,312.01 320.00,312.26 251.00,300.50" fill="#8b1a1a" opacity="0.11200000000000002"/><polygon points="320.00,312.01 440.00,308.44 440.00,308.19 320.00,312.26" fill="#8b1a1a" opacity="0.11200000000000002"/><polygon points="440.00,308.44 526.26,293.74 526.56,293.44 440.00,308.19" fill="#8b1a1a" opacity="0.11200000000000002"/><polygon points="526.26,293.74 541.55,204.00 541.80,204.00 526.56,293.44" fill="#8b1a1a" opacity="0.11200000000000002"/><polygon points="541.55,204.00 526.82,164.00 526.82,164.00 541.80,204.00" fill="#8b1a1a" opacity="0.11200000000000002"/><polygon points="251.00,300.25 320.00,304.12 320.00,304.37 251.00,300.50" fill="#8b1a1a" opacity="0.11200000000000002"/><polygon points="320.00,304.12 440.00,302.61 440.00,302.36 320.00,304.37" fill="#8b1a1a" opacity="0.11200000000000002"/><polygon points="440.00,302.61 521.99,298.01 522.25,297.75 440.00,302.36" fill="#8b1a1a" opacity="0.11200000000000002"/><polygon points="521.99,298.01 527.26,204.00 527.51,204.00 522.25,297.75" fill="#8b1a1a" opacity="0.11200000000000002"/><polygon points="527.26,204.00 522.24,164.00 522.24,164.00 527.51,204.00" fill="#8b1a1a" opacity="0.11200000000000002"/><polygon points="251.00,300.25 320.00,296.38 320.00,296.63 251.00,300.50" fill="#8b1a1a" opacity="0.11200000000000002"/><polygon points="320.00,296.38 440.00,296.89 440.00,296.64 320.00,296.63" fill="#8b1a1a" opacity="0.11200000000000002"/><polygon points="440.00,296.89 518.70,301.30 518.93,301.07 440.00,296.64" fill="#8b1a1a" opacity="0.11200000000000002"/><polygon points="518.70,301.30 513.24,204.00 513.49,204.00 518.93,301.07" fill="#8b1a1a" opacity="0.11200000000000002"/><polygon points="513.24,204.00 517.76,164.00 517.76,164.00 513.49,204.00" fill="#8b1a1a" opacity="0.11200000000000002"/><polygon points="251.00,300.25 320.00,288.49 320.00,288.74 251.00,300.50" fill="#8b1a1a" opacity="0.11200000000000002"/><polygon points="320.00,288.49 440.00,291.06 440.00,290.81 320.00,288.74" fill="#8b1a1a" opacity="0.11200000000000002"/><polygon points="440.00,291.06 515.99,304.01 516.20,303.80 440.00,290.81" fill="#8b1a1a" opacity="0.11200000000000002"/><polygon points="515.99,304.01 498.95,204.00 499.20,204.00 516.20,303.80" fill="#8b1a1a" opacity="0.11200000000000002"/><polygon points="498.95,204.00 513.18,164.00 513.18,164.00 499.20,204.00" fill="#8b1a1a" opacity="0.11200000000000002"/><polygon points="152.00,300.50 251.00,300.50 251.00,300.75 152.00,300.75" fill="#8b1a1a" opacity="0.28"/><polygon points="251.00,300.50 320.00,300.50 320.00,300.75 251.00,300.75" fill="#8b1a1a" opacity="0.11200000000000002"/><polygon points="320.00,300.50 370.00,300.08 370.00,300.13 320.00,300.75" fill="#8b1a1a" opacity="0.11200000000000002"/><polygon points="251.00,300.50 320.00,312.26 320.00,312.51 251.00,300.75" fill="#8b1a1a" opacity="0.11200000000000002"/><polygon points="320.00,312.26 440.00,308.19 440.00,307.94 320.00,312.51" fill="#8b1a1a" opacity="0.11200000000000002"/><polygon points="440.00,308.19 526.56,293.44 526.86,293.14 440.00,307.94" fill="#8b1a1a" opacity="0.11200000000000002"/><polygon points="526.56,293.44 541.80,204.00 542.05,204.00 526.86,293.14" fill="#8b1a1a" opacity="0.11200000000000002"/><polygon points="541.80,204.00 526.82,164.00 526.82,164.00 542.05,204.00" fill="#8b1a1a" opacity="0.11200000000000002"/><polygon points="251.00,300.50 320.00,304.37 320.00,304.62 251.00,300.75" fill="#8b1a1a" opacity="0.11200000000000002"/><polygon points="320.00,304.37 440.00,302.36 440.00,302.11 320.00,304.62" fill="#8b1a1a" opacity="0.11200000000000002"/><polygon points="440.00,302.36 522.25,297.75 522.52,297.48 440.00,302.11" fill="#8b1a1a" opacity="0.11200000000000002"/><polygon points="522.25,297.75 527.51,204.00 527.76,204.00 522.52,297.48" fill="#8b1a1a" opacity="0.11200000000000002"/><polygon points="527.51,204.00 522.24,164.00 522.24,164.00 527.76,204.00" fill="#8b1a1a" opacity="0.11200000000000002"/><polygon points="251.00,300.50 320.00,296.63 320.00,296.88 251.00,300.75" fill="#8b1a1a" opacity="0.11200000000000002"/><polygon points="320.00,296.63 440.00,296.64 440.00,296.39 320.00,296.88" fill="#8b1a1a" opacity="0.11200000000000002"/><polygon points="440.00,296.64 518.93,301.07 519.17,300.83 440.00,296.39" fill="#8b1a1a" opacity="0.11200000000000002"/><polygon points="518.93,301.07 513.49,204.00 513.74,204.00 519.17,300.83" fill="#8b1a1a" opacity="0.11200000000000002"/><polygon points="513.49,204.00 517.76,164.00 517.76,164.00 513.74,204.00" fill="#8b1a1a" opacity="0.11200000000000002"/><polygon points="251.00,300.50 320.00,288.74 320.00,288.99 251.00,300.75" fill="#8b1a1a" opacity="0.11200000000000002"/><polygon points="320.00,288.74 440.00,290.81 440.00,290.56 320.00,288.99" fill="#8b1a1a" opacity="0.11200000000000002"/><polygon points="440.00,290.81 516.20,303.80 516.42,303.58 440.00,290.56" fill="#8b1a1a" opacity="0.11200000000000002"/><polygon points="516.20,303.80 499.20,204.00 499.45,204.00 516.42,303.58" fill="#8b1a1a" opacity="0.11200000000000002"/><polygon points="499.20,204.00 513.18,164.00 513.18,164.00 499.45,204.00" fill="#8b1a1a" opacity="0.11200000000000002"/><polygon points="152.00,300.75 251.00,300.75 251.00,301.00 152.00,301.00" fill="#8b1a1a" opacity="0.28"/><polygon points="251.00,300.75 320.00,300.75 320.00,301.00 251.00,301.00" fill="#8b1a1a" opacity="0.11200000000000002"/><polygon points="320.00,300.75 370.00,300.13 370.00,300.17 320.00,301.00" fill="#8b1a1a" opacity="0.11200000000000002"/><polygon points="251.00,300.75 320.00,312.51 320.00,312.76 251.00,301.00" fill="#8b1a1a" opacity="0.11200000000000002"/><polygon points="320.00,312.51 440.00,307.94 440.00,307.69 320.00,312.76" fill="#8b1a1a" opacity="0.11200000000000002"/><polygon points="440.00,307.94 526.86,293.14 527.16,292.84 440.00,307.69" fill="#8b1a1a" opacity="0.11200000000000002"/><polygon points="526.86,293.14 542.05,204.00 542.30,204.00 527.16,292.84" fill="#8b1a1a" opacity="0.11200000000000002"/><polygon points="542.05,204.00 526.82,164.00 526.82,164.00 542.30,204.00" fill="#8b1a1a" opacity="0.11200000000000002"/><polygon points="251.00,300.75 320.00,304.62 320.00,304.87 251.00,301.00" fill="#8b1a1a" opacity="0.11200000000000002"/><polygon points="320.00,304.62 440.00,302.11 440.00,301.86 320.00,304.87" fill="#8b1a1a" opacity="0.11200000000000002"/><polygon points="440.00,302.11 522.52,297.48 522.78,297.22 440.00,301.86" fill="#8b1a1a" opacity="0.11200000000000002"/><polygon points="522.52,297.48 527.76,204.00 528.01,204.00 522.78,297.22" fill="#8b1a1a" opacity="0.11200000000000002"/><polygon points="527.76,204.00 522.24,164.00 522.24,164.00 528.01,204.00" fill="#8b1a1a" opacity="0.11200000000000002"/><polygon points="251.00,300.75 320.00,296.88 320.00,297.13 251.00,301.00" fill="#8b1a1a" opacity="0.11200000000000002"/><polygon points="320.00,296.88 440.00,296.39 440.00,296.14 320.00,297.13" fill="#8b1a1a" opacity="0.11200000000000002"/><polygon points="440.00,296.39 519.17,300.83 519.41,300.59 440.00,296.14" fill="#8b1a1a" opacity="0.11200000000000002"/><polygon points="519.17,300.83 513.74,204.00 513.99,204.00 519.41,300.59" fill="#8b1a1a" opacity="0.11200000000000002"/><polygon points="513.74,204.00 517.76,164.00 517.76,164.00 513.99,204.00" fill="#8b1a1a" opacity="0.11200000000000002"/><polygon points="251.00,300.75 320.00,288.99 320.00,289.24 251.00,301.00" fill="#8b1a1a" opacity="0.11200000000000002"/><polygon points="320.00,288.99 440.00,290.56 440.00,290.31 320.00,289.24" fill="#8b1a1a" opacity="0.11200000000000002"/><polygon points="440.00,290.56 516.42,303.58 516.63,303.37 440.00,290.31" fill="#8b1a1a" opacity="0.11200000000000002"/><polygon points="516.42,303.58 499.45,204.00 499.70,204.00 516.63,303.37" fill="#8b1a1a" opacity="0.11200000000000002"/><polygon points="499.45,204.00 513.18,164.00 513.18,164.00 499.70,204.00" fill="#8b1a1a" opacity="0.11200000000000002"/><polygon points="152.00,301.00 251.00,301.00 251.00,301.25 152.00,301.25" fill="#8b1a1a" opacity="0.28"/><polygon points="251.00,301.00 320.00,301.00 320.00,301.25 251.00,301.25" fill="#8b1a1a" opacity="0.11200000000000002"/><polygon points="320.00,301.00 370.00,300.17 370.00,300.21 320.00,301.25" fill="#8b1a1a" opacity="0.11200000000000002"/><polygon points="251.00,301.00 320.00,312.76 320.00,313.01 251.00,301.25" fill="#8b1a1a" opacity="0.11200000000000002"/><polygon points="320.00,312.76 440.00,307.69 440.00,307.44 320.00,313.01" fill="#8b1a1a" opacity="0.11200000000000002"/><polygon points="440.00,307.69 527.16,292.84 527.46,292.54 440.00,307.44" fill="#8b1a1a" opacity="0.11200000000000002"/><polygon points="527.16,292.84 542.30,204.00 542.55,204.00 527.46,292.54" fill="#8b1a1a" opacity="0.11200000000000002"/><polygon points="542.30,204.00 526.82,164.00 526.82,164.00 542.55,204.00" fill="#8b1a1a" opacity="0.11200000000000002"/><polygon points="251.00,301.00 320.00,304.87 320.00,305.12 251.00,301.25" fill="#8b1a1a" opacity="0.11200000000000002"/><polygon points="320.00,304.87 440.00,301.86 440.00,301.61 320.00,305.12" fill="#8b1a1a" opacity="0.11200000000000002"/><polygon points="440.00,301.86 522.78,297.22 523.05,296.95 440.00,301.61" fill="#8b1a1a" opacity="0.11200000000000002"/><polygon points="522.78,297.22 528.01,204.00 528.26,204.00 523.05,296.95" fill="#8b1a1a" opacity="0.11200000000000002"/><polygon points="528.01,204.00 522.24,164.00 522.24,164.00 528.26,204.00" fill="#8b1a1a" opacity="0.11200000000000002"/><polygon points="251.00,301.00 320.00,297.13 320.00,297.38 251.00,301.25" fill="#8b1a1a" opacity="0.11200000000000002"/><polygon points="320.00,297.13 440.00,296.14 440.00,295.89 320.00,297.38" fill="#8b1a1a" opacity="0.11200000000000002"/><polygon points="440.00,296.14 519.41,300.59 519.64,300.36 440.00,295.89" fill="#8b1a1a" opacity="0.11200000000000002"/><polygon points="519.41,300.59 513.99,204.00 514.24,204.00 519.64,300.36" fill="#8b1a1a" opacity="0.11200000000000002"/><polygon points="513.99,204.00 517.76,164.00 517.76,164.00 514.24,204.00" fill="#8b1a1a" opacity="0.11200000000000002"/><polygon points="251.00,301.00 320.00,289.24 320.00,289.49 251.00,301.25" fill="#8b1a1a" opacity="0.11200000000000002"/><polygon points="320.00,289.24 440.00,290.31 440.00,290.06 320.00,289.49" fill="#8b1a1a" opacity="0.11200000000000002"/><polygon points="440.00,290.31 516.63,303.37 516.85,303.15 440.00,290.06" fill="#8b1a1a" opacity="0.11200000000000002"/><polygon points="516.63,303.37 499.70,204.00 499.95,204.00 516.85,303.15" fill="#8b1a1a" opacity="0.11200000000000002"/><polygon points="499.70,204.00 513.18,164.00 513.18,164.00 499.95,204.00" fill="#8b1a1a" opacity="0.11200000000000002"/><polygon points="152.00,301.25 251.00,301.25 251.00,301.50 152.00,301.50" fill="#8b1a1a" opacity="0.28"/><polygon points="251.00,301.25 320.00,301.25 320.00,301.50 251.00,301.50" fill="#8b1a1a" opacity="0.11200000000000002"/><polygon points="320.00,301.25 370.00,300.21 370.00,300.25 320.00,301.50" fill="#8b1a1a" opacity="0.11200000000000002"/><polygon points="251.00,301.25 320.00,313.01 320.00,313.26 251.00,301.50" fill="#8b1a1a" opacity="0.11200000000000002"/><polygon points="320.00,313.01 440.00,307.44 440.00,307.19 320.00,313.26" fill="#8b1a1a" opacity="0.11200000000000002"/><polygon points="440.00,307.44 527.46,292.54 527.77,292.23 440.00,307.19" fill="#8b1a1a" opacity="0.11200000000000002"/><polygon points="527.46,292.54 542.55,204.00 542.80,204.00 527.77,292.23" fill="#8b1a1a" opacity="0.11200000000000002"/><polygon points="542.55,204.00 526.82,164.00 526.82,164.00 542.80,204.00" fill="#8b1a1a" opacity="0.11200000000000002"/><polygon points="251.00,301.25 320.00,305.12 320.00,305.37 251.00,301.50" fill="#8b1a1a" opacity="0.11200000000000002"/><polygon points="320.00,305.12 440.00,301.61 440.00,301.36 320.00,305.37" fill="#8b1a1a" opacity="0.11200000000000002"/><polygon points="440.00,301.61 523.05,296.95 523.31,296.69 440.00,301.36" fill="#8b1a1a" opacity="0.11200000000000002"/><polygon points="523.05,296.95 528.26,204.00 528.51,204.00 523.31,296.69" fill="#8b1a1a" opacity="0.11200000000000002"/><polygon points="528.26,204.00 522.24,164.00 522.24,164.00 528.51,204.00" fill="#8b1a1a" opacity="0.11200000000000002"/><polygon points="251.00,301.25 320.00,297.38 320.00,297.63 251.00,301.50" fill="#8b1a1a" opacity="0.11200000000000002"/><polygon points="320.00,297.38 440.00,295.89 440.00,295.64 320.00,297.63" fill="#8b1a1a" opacity="0.11200000000000002"/><polygon points="440.00,295.89 519.64,300.36 519.88,300.12 440.00,295.64" fill="#8b1a1a" opacity="0.11200000000000002"/><polygon points="519.64,300.36 514.24,204.00 514.49,204.00 519.88,300.12" fill="#8b1a1a" opacity="0.11200000000000002"/><polygon points="514.24,204.00 517.76,164.00 517.76,164.00 514.49,204.00" fill="#8b1a1a" opacity="0.11200000000000002"/><polygon points="251.00,301.25 320.00,289.49 320.00,289.74 251.00,301.50" fill="#8b1a1a" opacity="0.11200000000000002"/><polygon points="320.00,289.49 440.00,290.06 440.00,289.81 320.00,289.74" fill="#8b1a1a" opacity="0.11200000000000002"/><polygon points="440.00,290.06 516.85,303.15 517.06,302.94 440.00,289.81" fill="#8b1a1a" opacity="0.11200000000000002"/><polygon points="516.85,303.15 499.95,204.00 500.20,204.00 517.06,302.94" fill="#8b1a1a" opacity="0.11200000000000002"/><polygon points="499.95,204.00 513.18,164.00 513.18,164.00 500.20,204.00" fill="#8b1a1a" opacity="0.11200000000000002"/><polygon points="152.00,301.50 251.00,301.50 251.00,301.75 152.00,301.75" fill="#8b1a1a" opacity="0.28"/><polygon points="251.00,301.50 320.00,301.50 320.00,301.75 251.00,301.75" fill="#8b1a1a" opacity="0.11200000000000002"/><polygon points="320.00,301.50 370.00,300.25 370.00,300.29 320.00,301.75" fill="#8b1a1a" opacity="0.11200000000000002"/><polygon points="251.00,301.50 320.00,313.26 320.00,313.51 251.00,301.75" fill="#8b1a1a" opacity="0.11200000000000002"/><polygon points="320.00,313.26 440.00,307.19 440.00,306.94 320.00,313.51" fill="#8b1a1a" opacity="0.11200000000000002"/><polygon points="440.00,307.19 527.77,292.23 528.07,291.93 440.00,306.94" fill="#8b1a1a" opacity="0.11200000000000002"/><polygon points="527.77,292.23 542.80,204.00 543.05,204.00 528.07,291.93" fill="#8b1a1a" opacity="0.11200000000000002"/><polygon points="542.80,204.00 526.82,164.00 526.82,164.00 543.05,204.00" fill="#8b1a1a" opacity="0.11200000000000002"/><polygon points="251.00,301.50 320.00,305.37 320.00,305.62 251.00,301.75" fill="#8b1a1a" opacity="0.11200000000000002"/><polygon points="320.00,305.37 389.73,303.04 389.72,303.00 320.00,305.62" fill="#8b1a1a" opacity="0.11200000000000002"/><polygon points="251.00,301.50 320.00,297.63 320.00,297.88 251.00,301.75" fill="#8b1a1a" opacity="0.11200000000000002"/><polygon points="320.00,297.63 440.00,295.64 440.00,295.39 320.00,297.88" fill="#8b1a1a" opacity="0.11200000000000002"/><polygon points="440.00,295.64 519.88,300.12 520.12,299.88 440.00,295.39" fill="#8b1a1a" opacity="0.11200000000000002"/><polygon points="519.88,300.12 514.49,204.00 514.74,204.00 520.12,299.88" fill="#8b1a1a" opacity="0.11200000000000002"/><polygon points="514.49,204.00 517.76,164.00 517.76,164.00 514.74,204.00" fill="#8b1a1a" opacity="0.11200000000000002"/><polygon points="251.00,301.50 320.00,289.74 320.00,289.99 251.00,301.75" fill="#8b1a1a" opacity="0.11200000000000002"/><polygon points="320.00,289.74 440.00,289.81 440.00,289.56 320.00,289.99" fill="#8b1a1a" opacity="0.11200000000000002"/><polygon points="440.00,289.81 517.06,302.94 517.27,302.73 440.00,289.56" fill="#8b1a1a" opacity="0.11200000000000002"/><polygon points="517.06,302.94 500.20,204.00 500.45,204.00 517.27,302.73" fill="#8b1a1a" opacity="0.11200000000000002"/><polygon points="500.20,204.00 513.18,164.00 513.18,164.00 500.45,204.00" fill="#8b1a1a" opacity="0.11200000000000002"/><polygon points="152.00,301.75 251.00,301.75 251.00,302.00 152.00,302.00" fill="#8b1a1a" opacity="0.28"/><polygon points="251.00,301.75 320.00,301.75 320.00,302.00 251.00,302.00" fill="#8b1a1a" opacity="0.11200000000000002"/><polygon points="320.00,301.75 370.00,300.29 370.00,300.33 320.00,302.00" fill="#8b1a1a" opacity="0.11200000000000002"/><polygon points="251.00,301.75 320.00,313.51 320.00,313.76 251.00,302.00" fill="#8b1a1a" opacity="0.11200000000000002"/><polygon points="320.00,313.51 440.00,306.94 440.00,306.69 320.00,313.76" fill="#8b1a1a" opacity="0.11200000000000002"/><polygon points="440.00,306.94 528.07,291.93 528.37,291.63 440.00,306.69" fill="#8b1a1a" opacity="0.11200000000000002"/><polygon points="528.07,291.93 543.05,204.00 543.30,204.00 528.37,291.63" fill="#8b1a1a" opacity="0.11200000000000002"/><polygon points="543.05,204.00 526.82,164.00 526.82,164.00 543.30,204.00" fill="#8b1a1a" opacity="0.11200000000000002"/><polygon points="251.00,301.75 320.00,305.62 320.00,305.87 251.00,302.00" fill="#8b1a1a" opacity="0.11200000000000002"/><polygon points="320.00,305.62 389.72,303.00 388.75,303.00 320.00,305.87" fill="#8b1a1a" opacity="0.11200000000000002"/><polygon points="251.00,301.75 320.00,297.88 320.00,298.13 251.00,302.00" fill="#8b1a1a" opacity="0.11200000000000002"/><polygon points="320.00,297.88 440.00,295.39 440.00,295.14 320.00,298.13" fill="#8b1a1a" opacity="0.11200000000000002"/><polygon points="440.00,295.39 520.12,299.88 520.35,299.65 440.00,295.14" fill="#8b1a1a" opacity="0.11200000000000002"/><polygon points="520.12,299.88 514.74,204.00 514.99,204.00 520.35,299.65" fill="#8b1a1a" opacity="0.11200000000000002"/><polygon points="514.74,204.00 517.76,164.00 517.76,164.00 514.99,204.00" fill="#8b1a1a" opacity="0.11200000000000002"/><polygon points="251.00,301.75 320.00,289.99 320.00,290.24 251.00,302.00" fill="#8b1a1a" opacity="0.11200000000000002"/><polygon points="320.00,289.99 440.00,289.56 440.00,289.31 320.00,290.24" fill="#8b1a1a" opacity="0.11200000000000002"/><polygon points="440.00,289.56 517.27,302.73 517.49,302.51 440.00,289.31" fill="#8b1a1a" opacity="0.11200000000000002"/><polygon points="517.27,302.73 500.45,204.00 500.70,204.00 517.49,302.51" fill="#8b1a1a" opacity="0.11200000000000002"/><polygon points="500.45,204.00 513.18,164.00 513.18,164.00 500.70,204.00" fill="#8b1a1a" opacity="0.11200000000000002"/><polygon points="152.00,302.00 251.00,302.00 251.00,302.25 152.00,302.25" fill="#8b1a1a" opacity="0.28"/><polygon points="251.00,302.00 320.00,302.00 320.00,302.25 251.00,302.25" fill="#8b1a1a" opacity="0.11200000000000002"/><polygon points="320.00,302.00 370.00,300.33 370.00,300.38 320.00,302.25" fill="#8b1a1a" opacity="0.11200000000000002"/><polygon points="251.00,302.00 320.00,313.76 320.00,314.01 251.00,302.25" fill="#8b1a1a" opacity="0.11200000000000002"/><polygon points="320.00,313.76 440.00,306.69 440.00,306.44 320.00,314.01" fill="#8b1a1a" opacity="0.11200000000000002"/><polygon points="440.00,306.69 528.37,291.63 528.67,291.33 440.00,306.44" fill="#8b1a1a" opacity="0.11200000000000002"/><polygon points="528.37,291.63 543.30,204.00 543.55,204.00 528.67,291.33" fill="#8b1a1a" opacity="0.11200000000000002"/><polygon points="543.30,204.00 526.82,164.00 526.82,164.00 543.55,204.00" fill="#8b1a1a" opacity="0.11200000000000002"/><polygon points="251.00,302.00 320.00,305.87 320.00,306.12 251.00,302.25" fill="#8b1a1a" opacity="0.11200000000000002"/><polygon points="320.00,305.87 388.75,303.00 387.96,303.00 320.00,306.12" fill="#8b1a1a" opacity="0.11200000000000002"/><polygon points="251.00,302.00 320.00,298.13 320.00,298.38 251.00,302.25" fill="#8b1a1a" opacity="0.11200000000000002"/><polygon points="320.00,298.13 440.00,295.14 440.00,294.89 320.00,298.38" fill="#8b1a1a" opacity="0.11200000000000002"/><polygon points="440.00,295.14 520.35,299.65 520.59,299.41 440.00,294.89" fill="#8b1a1a" opacity="0.11200000000000002"/><polygon points="520.35,299.65 514.99,204.00 515.24,204.00 520.59,299.41" fill="#8b1a1a" opacity="0.11200000000000002"/><polygon points="514.99,204.00 517.76,164.00 517.76,164.00 515.24,204.00" fill="#8b1a1a" opacity="0.11200000000000002"/><polygon points="251.00,302.00 320.00,290.24 320.00,290.49 251.00,302.25" fill="#8b1a1a" opacity="0.11200000000000002"/><polygon points="320.00,290.24 440.00,289.31 440.00,289.06 320.00,290.49" fill="#8b1a1a" opacity="0.11200000000000002"/><polygon points="440.00,289.31 517.49,302.51 517.70,302.30 440.00,289.06" fill="#8b1a1a" opacity="0.11200000000000002"/><polygon points="517.49,302.51 500.70,204.00 500.95,204.00 517.70,302.30" fill="#8b1a1a" opacity="0.11200000000000002"/><polygon points="500.70,204.00 513.18,164.00 513.18,164.00 500.95,204.00" fill="#8b1a1a" opacity="0.11200000000000002"/><polygon points="152.00,302.25 251.00,302.25 251.00,302.50 152.00,302.50" fill="#8b1a1a" opacity="0.28"/><polygon points="251.00,302.25 320.00,302.25 320.00,302.50 251.00,302.50" fill="#8b1a1a" opacity="0.11200000000000002"/><polygon points="320.00,302.25 370.00,300.38 370.00,300.42 320.00,302.50" fill="#8b1a1a" opacity="0.11200000000000002"/><polygon points="251.00,302.25 320.00,314.01 320.00,314.26 251.00,302.50" fill="#8b1a1a" opacity="0.11200000000000002"/><polygon points="320.00,314.01 440.00,306.44 440.00,306.19 320.00,314.26" fill="#8b1a1a" opacity="0.11200000000000002"/><polygon points="440.00,306.44 528.67,291.33 528.97,291.03 440.00,306.19" fill="#8b1a1a" opacity="0.11200000000000002"/><polygon points="528.67,291.33 543.55,204.00 543.80,204.00 528.97,291.03" fill="#8b1a1a" opacity="0.11200000000000002"/><polygon points="543.55,204.00 526.82,164.00 526.82,164.00 543.80,204.00" fill="#8b1a1a" opacity="0.11200000000000002"/><polygon points="251.00,302.25 320.00,306.12 320.00,306.37 251.00,302.50" fill="#8b1a1a" opacity="0.11200000000000002"/><polygon points="320.00,306.12 387.96,303.00 387.29,303.00 320.00,306.37" fill="#8b1a1a" opacity="0.11200000000000002"/><polygon points="251.00,302.25 320.00,298.38 320.00,298.63 251.00,302.50" fill="#8b1a1a" opacity="0.11200000000000002"/><polygon points="320.00,298.38 440.00,294.89 440.00,294.64 320.00,298.63" fill="#8b1a1a" opacity="0.11200000000000002"/><polygon points="440.00,294.89 520.59,299.41 520.83,299.17 440.00,294.64" fill="#8b1a1a" opacity="0.11200000000000002"/><polygon points="520.59,299.41 515.24,204.00 515.49,204.00 520.83,299.17" fill="#8b1a1a" opacity="0.11200000000000002"/><polygon points="515.24,204.00 517.76,164.00 517.76,164.00 515.49,204.00" fill="#8b1a1a" opacity="0.11200000000000002"/><polygon points="251.00,302.25 320.00,290.49 320.00,290.74 251.00,302.50" fill="#8b1a1a" opacity="0.11200000000000002"/><polygon points="320.00,290.49 440.00,289.06 440.00,288.81 320.00,290.74" fill="#8b1a1a" opacity="0.11200000000000002"/><polygon points="440.00,289.06 517.70,302.30 517.91,302.09 440.00,288.81" fill="#8b1a1a" opacity="0.11200000000000002"/><polygon points="517.70,302.30 500.95,204.00 501.20,204.00 517.91,302.09" fill="#8b1a1a" opacity="0.11200000000000002"/><polygon points="500.95,204.00 513.18,164.00 513.18,164.00 501.20,204.00" fill="#8b1a1a" opacity="0.11200000000000002"/><polygon points="152.00,302.50 251.00,302.50 251.00,302.75 152.00,302.75" fill="#8b1a1a" opacity="0.28"/><polygon points="251.00,302.50 320.00,302.50 320.00,302.75 251.00,302.75" fill="#8b1a1a" opacity="0.11200000000000002"/><polygon points="320.00,302.50 370.00,300.42 370.00,300.46 320.00,302.75" fill="#8b1a1a" opacity="0.11200000000000002"/><polygon points="251.00,302.50 320.00,314.26 320.00,314.51 251.00,302.75" fill="#8b1a1a" opacity="0.11200000000000002"/><polygon points="320.00,314.26 440.00,306.19 440.00,305.94 320.00,314.51" fill="#8b1a1a" opacity="0.11200000000000002"/><polygon points="440.00,306.19 528.97,291.03 529.27,290.73 440.00,305.94" fill="#8b1a1a" opacity="0.11200000000000002"/><polygon points="528.97,291.03 543.80,204.00 544.05,204.00 529.27,290.73" fill="#8b1a1a" opacity="0.11200000000000002"/><polygon points="543.80,204.00 526.82,164.00 526.82,164.00 544.05,204.00" fill="#8b1a1a" opacity="0.11200000000000002"/><polygon points="251.00,302.50 320.00,306.37 320.00,306.62 251.00,302.75" fill="#8b1a1a" opacity="0.11200000000000002"/><polygon points="320.00,306.37 387.29,303.00 386.73,303.00 320.00,306.62" fill="#8b1a1a" opacity="0.11200000000000002"/><polygon points="251.00,302.50 320.00,298.63 320.00,298.88 251.00,302.75" fill="#8b1a1a" opacity="0.11200000000000002"/><polygon points="320.00,298.63 370.01,296.97 370.00,297.01 320.00,298.88" fill="#8b1a1a" opacity="0.11200000000000002"/><polygon points="251.00,302.50 320.00,290.74 320.00,290.99 251.00,302.75" fill="#8b1a1a" opacity="0.11200000000000002"/><polygon points="320.00,290.74 440.00,288.81 440.00,288.56 320.00,290.99" fill="#8b1a1a" opacity="0.11200000000000002"/><polygon points="440.00,288.81 517.91,302.09 518.13,301.87 440.00,288.56" fill="#8b1a1a" opacity="0.11200000000000002"/><polygon points="517.91,302.09 501.20,204.00 501.45,204.00 518.13,301.87" fill="#8b1a1a" opacity="0.11200000000000002"/><polygon points="501.20,204.00 513.18,164.00 513.18,164.00 501.45,204.00" fill="#8b1a1a" opacity="0.11200000000000002"/><polygon points="152.00,302.75 251.00,302.75 251.00,303.00 152.00,303.00" fill="#8b1a1a" opacity="0.28"/><polygon points="251.00,302.75 320.00,302.75 320.00,303.00 251.00,303.00" fill="#8b1a1a" opacity="0.11200000000000002"/><polygon points="320.00,302.75 370.00,300.46 370.00,300.50 320.00,303.00" fill="#8b1a1a" opacity="0.11200000000000002"/><polygon points="251.00,302.75 320.00,314.51 320.00,314.76 251.00,303.00" fill="#8b1a1a" opacity="0.11200000000000002"/><polygon points="320.00,314.51 440.00,305.94 440.00,305.69 320.00,314.76" fill="#8b1a1a" opacity="0.11200000000000002"/><polygon points="440.00,305.94 529.27,290.73 529.57,290.43 440.00,305.69" fill="#8b1a1a" opacity="0.11200000000000002"/><polygon points="529.27,290.73 544.05,204.00 544.30,204.00 529.57,290.43" fill="#8b1a1a" opacity="0.11200000000000002"/><polygon points="544.05,204.00 526.82,164.00 526.82,164.00 544.30,204.00" fill="#8b1a1a" opacity="0.11200000000000002"/><polygon points="251.00,302.75 320.00,306.62 320.00,306.87 251.00,303.00" fill="#8b1a1a" opacity="0.11200000000000002"/><polygon points="320.00,306.62 386.73,303.00 386.25,303.00 320.00,306.87" fill="#8b1a1a" opacity="0.11200000000000002"/><polygon points="251.00,302.75 320.00,298.88 320.00,299.13 251.00,303.00" fill="#8b1a1a" opacity="0.11200000000000002"/><polygon points="320.00,298.88 370.00,297.01 370.00,297.05 320.00,299.13" fill="#8b1a1a" opacity="0.11200000000000002"/><polygon points="251.00,302.75 320.00,290.99 320.00,291.24 251.00,303.00" fill="#8b1a1a" opacity="0.11200000000000002"/><polygon points="320.00,290.99 440.00,288.56 440.00,288.31 320.00,291.24" fill="#8b1a1a" opacity="0.11200000000000002"/><polygon points="440.00,288.56 518.13,301.87 518.34,301.66 440.00,288.31" fill="#8b1a1a" opacity="0.11200000000000002"/><polygon points="518.13,301.87 501.45,204.00 501.70,204.00 518.34,301.66" fill="#8b1a1a" opacity="0.11200000000000002"/><polygon points="501.45,204.00 513.18,164.00 513.18,164.00 501.70,204.00" fill="#8b1a1a" opacity="0.11200000000000002"/><polyline points="152.00,297.00 251.00,297.00" fill="none" stroke="#8b1a1a" stroke-width="1.2" opacity="0.7" stroke-linejoin="round" stroke-linecap="round" /><polyline points="251.00,297.00 320.00,297.00" fill="none" stroke="#8b1a1a" stroke-width="1.2" opacity="0.7" stroke-linejoin="round" stroke-linecap="round" /><polyline points="320.00,297.00 370.00,299.50" fill="none" stroke="#8b1a1a" stroke-width="1.2" opacity="0.7" stroke-linejoin="round" stroke-linecap="round" /><polyline points="251.00,297.00 320.00,308.76" fill="none" stroke="#8b1a1a" stroke-width="1.2" opacity="0.7" stroke-linejoin="round" stroke-linecap="round" /><polyline points="320.00,308.76 440.00,311.69" fill="none" stroke="#8b1a1a" stroke-width="1.2" opacity="0.7" stroke-linejoin="round" stroke-linecap="round" /><polyline points="440.00,311.69 522.34,297.66" fill="none" stroke="#8b1a1a" stroke-width="1.2" opacity="0.7" stroke-linejoin="round" stroke-linecap="round" /><polyline points="522.34,297.66 538.30,204.00" fill="none" stroke="#8b1a1a" stroke-width="1.2" opacity="0.7" stroke-linejoin="round" stroke-linecap="round" /><polyline points="538.30,204.00 526.82,164.00" fill="none" stroke="#8b1a1a" stroke-width="1.2" opacity="0.7" stroke-linejoin="round" stroke-linecap="round" /><polyline points="251.00,297.00 320.00,300.87" fill="none" stroke="#8b1a1a" stroke-width="1.2" opacity="0.7" stroke-linejoin="round" stroke-linecap="round" /><polyline points="320.00,300.87 370.00,302.95" fill="none" stroke="#8b1a1a" stroke-width="1.2" opacity="0.7" stroke-linejoin="round" stroke-linecap="round" /><polyline points="251.00,297.00 320.00,293.13" fill="none" stroke="#8b1a1a" stroke-width="1.2" opacity="0.7" stroke-linejoin="round" stroke-linecap="round" /><polyline points="320.00,293.13 386.25,297.00" fill="none" stroke="#8b1a1a" stroke-width="1.2" opacity="0.7" stroke-linejoin="round" stroke-linecap="round" /><polyline points="251.00,297.00 320.00,285.24" fill="none" stroke="#8b1a1a" stroke-width="1.2" opacity="0.7" stroke-linejoin="round" stroke-linecap="round" /><polyline points="320.00,285.24 440.00,294.31" fill="none" stroke="#8b1a1a" stroke-width="1.2" opacity="0.7" stroke-linejoin="round" stroke-linecap="round" /><polyline points="440.00,294.31 513.21,306.79" fill="none" stroke="#8b1a1a" stroke-width="1.2" opacity="0.7" stroke-linejoin="round" stroke-linecap="round" /><polyline points="513.21,306.79 495.70,204.00" fill="none" stroke="#8b1a1a" stroke-width="1.2" opacity="0.7" stroke-linejoin="round" stroke-linecap="round" /><polyline points="495.70,204.00 513.18,164.00" fill="none" stroke="#8b1a1a" stroke-width="1.2" opacity="0.7" stroke-linejoin="round" stroke-linecap="round" /><polyline points="152.00,303.00 251.00,303.00" fill="none" stroke="#8b1a1a" stroke-width="1.2" opacity="0.7" stroke-linejoin="round" stroke-linecap="round" /><polyline points="251.00,303.00 320.00,303.00" fill="none" stroke="#8b1a1a" stroke-width="1.2" opacity="0.7" stroke-linejoin="round" stroke-linecap="round" /><polyline points="320.00,303.00 370.00,300.50" fill="none" stroke="#8b1a1a" stroke-width="1.2" opacity="0.7" stroke-linejoin="round" stroke-linecap="round" /><polyline points="251.00,303.00 320.00,314.76" fill="none" stroke="#8b1a1a" stroke-width="1.2" opacity="0.7" stroke-linejoin="round" stroke-linecap="round" /><polyline points="320.00,314.76 440.00,305.69" fill="none" stroke="#8b1a1a" stroke-width="1.2" opacity="0.7" stroke-linejoin="round" stroke-linecap="round" /><polyline points="440.00,305.69 529.57,290.43" fill="none" stroke="#8b1a1a" stroke-width="1.2" opacity="0.7" stroke-linejoin="round" stroke-linecap="round" /><polyline points="529.57,290.43 544.30,204.00" fill="none" stroke="#8b1a1a" stroke-width="1.2" opacity="0.7" stroke-linejoin="round" stroke-linecap="round" /><polyline points="544.30,204.00 526.82,164.00" fill="none" stroke="#8b1a1a" stroke-width="1.2" opacity="0.7" stroke-linejoin="round" stroke-linecap="round" /><polyline points="251.00,303.00 320.00,306.87" fill="none" stroke="#8b1a1a" stroke-width="1.2" opacity="0.7" stroke-linejoin="round" stroke-linecap="round" /><polyline points="320.00,306.87 386.25,303.00" fill="none" stroke="#8b1a1a" stroke-width="1.2" opacity="0.7" stroke-linejoin="round" stroke-linecap="round" /><polyline points="251.00,303.00 320.00,299.13" fill="none" stroke="#8b1a1a" stroke-width="1.2" opacity="0.7" stroke-linejoin="round" stroke-linecap="round" /><polyline points="320.00,299.13 370.00,297.05" fill="none" stroke="#8b1a1a" stroke-width="1.2" opacity="0.7" stroke-linejoin="round" stroke-linecap="round" /><polyline points="251.00,303.00 320.00,291.24" fill="none" stroke="#8b1a1a" stroke-width="1.2" opacity="0.7" stroke-linejoin="round" stroke-linecap="round" /><polyline points="320.00,291.24 440.00,288.31" fill="none" stroke="#8b1a1a" stroke-width="1.2" opacity="0.7" stroke-linejoin="round" stroke-linecap="round" /><polyline points="440.00,288.31 518.34,301.66" fill="none" stroke="#8b1a1a" stroke-width="1.2" opacity="0.7" stroke-linejoin="round" stroke-linecap="round" /><polyline points="518.34,301.66 501.70,204.00" fill="none" stroke="#8b1a1a" stroke-width="1.2" opacity="0.7" stroke-linejoin="round" stroke-linecap="round" /><polyline points="501.70,204.00 513.18,164.00" fill="none" stroke="#8b1a1a" stroke-width="1.2" opacity="0.7" stroke-linejoin="round" stroke-linecap="round" /><g transform="translate(100 300) rotate(0)"><rect x="-46" y="-17" width="92" height="34" rx="4" fill="#3a3f46" stroke="#22252a" stroke-width="1.5"/><text x="0" y="-3"  text-anchor="middle" dominant-baseline="central" font-size="10" font-weight="700" letter-spacing="1.5" fill="#fff">LASER</text><g stroke="#8fd3ff" stroke-width="1.2" opacity="0.95"><path d="M -17,8 L -12,8 L -10,3 L -8,11 L -6,8 L -1,8"/><path d="M 3,8 L 8,8 L 10,3 L 12,11 L 14,8 L 19,8"/></g><rect x="46" y="-6" width="5" height="12" fill="#666" stroke="#444" stroke-width="1"/></g><text x="100.0" y="332.0" text-anchor="middle"  font-size="11" fill="#444">Illustrative fs source</text><g transform="translate(260 300) rotate(0)"><rect x="-9" y="-28" width="20" height="56" rx="2" fill="#3a4750" stroke="#222b31" stroke-width="1.5"/><line x1="-11" y1="-23" x2="-7" y2="-23" stroke="#4ac0b0" stroke-width="2.5"/><line x1="-11" y1="-18" x2="-7" y2="-18" stroke="#4ac0b0" stroke-width="2.5"/><line x1="-11" y1="-13" x2="-7" y2="-13" stroke="#4ac0b0" stroke-width="2.5"/><line x1="-11" y1="-8" x2="-7" y2="-8" stroke="#4ac0b0" stroke-width="2.5"/><line x1="-11" y1="-3" x2="-7" y2="-3" stroke="#4ac0b0" stroke-width="2.5"/><line x1="-11" y1="2" x2="-7" y2="2" stroke="#4ac0b0" stroke-width="2.5"/><line x1="-11" y1="7" x2="-7" y2="7" stroke="#4ac0b0" stroke-width="2.5"/><line x1="-11" y1="12" x2="-7" y2="12" stroke="#4ac0b0" stroke-width="2.5"/><line x1="-11" y1="17" x2="-7" y2="17" stroke="#4ac0b0" stroke-width="2.5"/><line x1="-11" y1="22" x2="-7" y2="22" stroke="#4ac0b0" stroke-width="2.5"/><text x="3" y="0" text-anchor="middle" dominant-baseline="central" font-size="8.5" font-weight="600" fill="#fff" transform="rotate(90 3 0)">SLM</text></g><text x="260.0" y="343.0" text-anchor="middle"  font-size="11" fill="#444">SLM (4 orders)</text><g transform="translate(320 300) rotate(0)"><path d="M 0,-27.5 Q 9,0 0,27.5 Q -9,0 0,-27.5 Z" fill="#c9e4f5" stroke="#4a90c4" stroke-width="1.5"/></g><text x="320.0" y="343.5" text-anchor="middle"  font-size="11" fill="#444">L1</text><g transform="translate(380 300) rotate(0)"><path d="M -10,-3 L 10,-3 L 10,3 L -10,3 Z M -10,-3 L 4,0 L -10,3" fill="#26292e" stroke="#111" stroke-width="1.5"/></g><text x="380.0" y="318.0" text-anchor="middle"  font-size="11" fill="#444">BPF stop</text><g transform="translate(440 300) rotate(0)"><path d="M 0,-27.5 Q 9,0 0,27.5 Q -9,0 0,-27.5 Z" fill="#c9e4f5" stroke="#4a90c4" stroke-width="1.5"/></g><text x="440.0" y="343.5" text-anchor="middle"  font-size="11" fill="#444">L2</text><g transform="translate(520 300) rotate(45)"><line x1="0" y1="-35" x2="0" y2="35" stroke="#444" stroke-width="3.5"/><line x1="-1.5" y1="-35" x2="-7.5" y2="-29" stroke="#888" stroke-width="1"/><line x1="-1.5" y1="-27.88888888888889" x2="-7.5" y2="-21.88888888888889" stroke="#888" stroke-width="1"/><line x1="-1.5" y1="-20.77777777777778" x2="-7.5" y2="-14.777777777777779" stroke="#888" stroke-width="1"/><line x1="-1.5" y1="-13.666666666666668" x2="-7.5" y2="-7.666666666666668" stroke="#888" stroke-width="1"/><line x1="-1.5" y1="-6.555555555555557" x2="-7.5" y2="-0.5555555555555571" stroke="#888" stroke-width="1"/><line x1="-1.5" y1="0.5555555555555571" x2="-7.5" y2="6.555555555555557" stroke="#888" stroke-width="1"/><line x1="-1.5" y1="7.666666666666664" x2="-7.5" y2="13.666666666666664" stroke="#888" stroke-width="1"/><line x1="-1.5" y1="14.777777777777771" x2="-7.5" y2="20.77777777777777" stroke="#888" stroke-width="1"/><line x1="-1.5" y1="21.888888888888886" x2="-7.5" y2="27.888888888888886" stroke="#888" stroke-width="1"/><line x1="-1.5" y1="29" x2="-7.5" y2="35" stroke="#888" stroke-width="1"/></g><text x="520.0" y="344.8" text-anchor="middle"  font-size="11" fill="#444">M1 fold</text><g transform="translate(520 190) rotate(270)"><path d="M 16,-45 L 7,-52 L -21,-52 L -21,52 L 7,52 L 16,45 Z" fill="#8d98a5" stroke="none"/><path d="M 7,-52 L -21,-52 L -21,52 L 7,52" fill="none" stroke="#4d565f" stroke-width="1.5" stroke-linejoin="round"/><line x1="7" y1="-52" x2="7" y2="52" stroke="#4d565f" stroke-width="1"/><rect x="-21" y="-52" width="2.4" height="20.00" fill="#2f3e4d"/><rect x="-21" y="32.00" width="2.4" height="20.00" fill="#2f3e4d"/></g><text x="458.0" y="190.0" text-anchor="end" dominant-baseline="central" font-size="11" fill="#444">Objective</text><g transform="translate(520 164) rotate(0)"><path d="M -62,-8 L -62,6 L -30,6" fill="none" stroke="#4d565f" stroke-width="4"/><path d="M 62,-8 L 62,6 L 30,6" fill="none" stroke="#4d565f" stroke-width="4"/><rect x="-50" y="-1.00" width="100" height="2" fill="#c9e4f5" fill-opacity="0.75" stroke="none"/><circle cx="0" cy="-0.5" r="6.2" fill="none" stroke="#7c3aed" stroke-width="0.8" stroke-dasharray="1.5 1.5"/></g><text x="520.0" y="146.0" text-anchor="middle"  font-size="11" fill="#444">4 focal-plane hits</text><g transform="translate(40 42) rotate(0)"><g class="markdown-label" data-markdown="true"><text x="0" y="4.84" text-anchor="start" font-size="15.36" fill="#26333a" font-weight="730" xml:space="preserve"><tspan>Yan et al. (2015) — mechanism interpretation</tspan></text></g></g><g transform="translate(650 95) rotate(0)"><g class="markdown-label" data-markdown="true"><text x="0" y="-19.36" text-anchor="start" font-size="8.00" fill="#7c3d12" xml:space="preserve"><tspan font-weight="700">Primary-source limit:</tspan><tspan> full text unavailable.</tspan></text><text x="0" y="-8.64" text-anchor="start" font-size="8.00" fill="#7c3d12" xml:space="preserve"><tspan>800 nm / 150 fs / 80 MHz / 0.1 W; NA 0.8</tspan></text><text x="0" y="2.08" text-anchor="start" font-size="8.00" fill="#7c3d12" xml:space="preserve"><tspan>are free interpretation.</tspan></text><text x="0" y="12.80" text-anchor="start" font-size="8.00" fill="#7c3d12" xml:space="preserve"><tspan>633 nm is characterization, not fabrication.</tspan></text><text x="0" y="23.52" text-anchor="start" font-size="8.00" fill="#7c3d12" xml:space="preserve"><tspan>Configured-value handoff is disabled.</tspan></text></g></g><g transform="translate(650 185) rotate(0)"><g class="markdown-label" data-markdown="true"><text x="0" y="-51.52" text-anchor="start" font-size="8.00" fill="#334155" xml:space="preserve"><tspan font-weight="700">Computed:</tspan><tspan> SLM → Fourier stop → relay</tspan></text><text x="0" y="-40.80" text-anchor="start" font-size="8.00" fill="#334155" xml:space="preserve"><tspan>→ fold → objective → four resin foci.</tspan></text><text x="0" y="-19.36" text-anchor="start" font-size="8.00" fill="#334155" xml:space="preserve"><tspan font-weight="700">Projection:</tspan><tspan> one row of the reported 4×4</tspan></text><text x="0" y="-8.64" text-anchor="start" font-size="8.00" fill="#334155" xml:space="preserve"><tspan>hexagonal array; not a solved CGH.</tspan></text><text x="0" y="2.08" text-anchor="start" font-size="8.00" fill="#334155" xml:space="preserve"><tspan font-weight="700">Not solved:</tspan><tspan> PSF, dose, curing, 3D geometry.</tspan></text><text x="0" y="23.52" text-anchor="start" font-size="8.00" fill="#334155" xml:space="preserve"><tspan font-weight="700">Try:</tspan><tspan> orders −1,1 → two foci.</tspan></text><text x="0" y="34.24" text-anchor="start" font-size="8.00" fill="#334155" xml:space="preserve"><tspan>Remove BPF stop → central order returns.</tspan></text><text x="0" y="44.96" text-anchor="start" font-size="8.00" fill="#334155" xml:space="preserve"><tspan>Laser off → no paths or writing.</tspan></text><text x="0" y="55.68" text-anchor="start" font-size="8.00" fill="#334155" xml:space="preserve"><tspan>Stage Static → sweep stops.</tspan></text></g></g></svg>